<svg width="56" height="56" viewBox="0 0 56 56" fill="none" xmlns="http://www.w3.org/2000/svg">
<rect x="4" y="4" width="48" height="48" rx="24" fill="#F4EBFF"/>
<rect x="4" y="4" width="48" height="48" rx="24" stroke="#F9F5FF" stroke-width="8"/>
<path d="M19 37V36C19 33.79 20.79 32 23 32H27C29.21 32 31 33.79 31 36V37" stroke="#605BFF" stroke-width="2" stroke-linecap="round" stroke-linejoin="round"/>
<path d="M25 29C23.34 29 22 27.66 22 26C22 24.34 23.34 23 25 23C26.66 23 28 24.34 28 26C28 27.66 26.66 29 25 29Z" stroke="#605BFF" stroke-width="2" stroke-linecap="round" stroke-linejoin="round"/>
<path d="M31 22H37" stroke="#605BFF" stroke-width="2" stroke-linecap="round" stroke-linejoin="round"/>
<path d="M34 19V25" stroke="#605BFF" stroke-width="2" stroke-linecap="round" stroke-linejoin="round"/>
</svg>
